<?xml version="1.0" encoding="utf-8"?>
<!-- Generator: Adobe Illustrator 22.0.0, SVG Export Plug-In . SVG Version: 6.00 Build 0)  -->
<svg version="1.1" id="Layer_1" xmlns="http://www.w3.org/2000/svg" xmlns:xlink="http://www.w3.org/1999/xlink" x="0px" y="0px"
	 viewBox="0 0 165.2 163" style="enable-background:new 0 0 165.2 163;" xml:space="preserve">
<style type="text/css">
	.st0{fill:#FFFFFF;}
</style>
<polygon class="st0" points="22.4,118.9 20.7,120.4 20.7,134.6 22.4,136.1 22.4,136.2 16,136.2 16,136.1 17.8,134.6 17.8,122.5 
	11.9,135.5 10.5,135.5 4.5,122.7 4.5,134.6 6.3,136.1 6.3,136.2 1,136.2 1,136.1 2.7,134.6 2.7,120.4 1,118.9 1,118.8 5.9,118.8 
	11.9,131.5 17.6,118.8 22.4,118.8 "/>
<path class="st0" d="M30.6,129.2h5.2l-2.7-6.3L30.6,129.2z M34.6,118.8l6.7,15.8l1.7,1.5v0.1h-6.6v-0.1l1.7-1.5l-1.5-3.7H30
	l-1.5,3.7l1.7,1.5v0.1H25v-0.1l1.7-1.5l6.5-15.8H34.6z"/>
<polygon class="st0" points="74.9,118.9 73.2,120.4 73.2,134.6 74.9,136.1 74.9,136.2 68.6,136.2 68.6,136.1 70.3,134.6 70.3,122.5 
	64.5,135.5 63.1,135.5 57.1,122.7 57.1,134.6 58.8,136.1 58.8,136.2 53.6,136.2 53.6,136.1 55.3,134.6 55.3,120.4 53.6,118.9 
	53.6,118.8 58.5,118.8 64.4,131.5 70.2,118.8 74.9,118.8 "/>
<path class="st0" d="M83.2,129.2h5.2l-2.7-6.3L83.2,129.2z M87.2,118.8l6.7,15.8l1.7,1.5v0.1H89v-0.1l1.7-1.5l-1.5-3.7h-6.6
	l-1.5,3.7l1.7,1.5v0.1h-5.2v-0.1l1.7-1.5l6.5-15.8H87.2z"/>
<polygon class="st0" points="104.5,118.9 102.8,120.4 102.8,134.6 104.5,136.1 104.5,136.2 98.2,136.2 98.2,136.1 99.9,134.6 
	99.9,120.4 98.2,118.9 98.2,118.8 104.5,118.8 "/>
<path class="st0" d="M119.5,119.6v3.9h-0.1c-1.6-2.3-3.4-3.4-5.4-3.4c-2.1,0-3,1.2-3,2.4v0.1c0,1.6,1.2,2.2,3.9,2.9
	c4,1.1,6,2.7,6,5.7v0.1c0,1.4-0.6,2.5-1.7,3.4c-1.1,0.9-2.7,1.4-4.6,1.4c-1.6,0-3.8-0.6-6.4-1.8v-4.4h0.1c2.2,3,4.1,4.5,6.4,4.5
	c2.2,0,3.5-1.1,3.5-2.7V132c0-2-1.6-2.8-4.7-3.6c-3.4-0.9-5-2.6-5-5v-0.2c0-1.3,0.5-2.4,1.6-3.3c1.1-0.9,2.5-1.4,4.1-1.4
	C115.5,118.6,117.3,118.9,119.5,119.6"/>
<path class="st0" d="M127,127.7c0,2.1,0.6,3.8,1.7,5.1c1.2,1.3,2.6,2,4.5,2c1.8,0,3.3-0.7,4.5-2c1.1-1.3,1.7-3,1.7-5.1v-0.4
	c0-2.1-0.6-3.8-1.7-5.1c-1.2-1.3-2.6-2-4.5-2c-1.8,0-3.3,0.7-4.5,2c-1.1,1.3-1.7,3-1.7,5.1V127.7z M139.8,121
	c1.8,1.6,2.8,3.7,2.8,6.3v0.3c0,2.6-0.9,4.7-2.8,6.3c-1.8,1.6-4.1,2.4-6.6,2.4c-2.6,0-4.8-0.8-6.6-2.4c-1.8-1.6-2.7-3.7-2.7-6.3
	v-0.3c0-2.6,0.9-4.7,2.7-6.3c1.8-1.6,4-2.4,6.6-2.4C135.8,118.6,138,119.4,139.8,121"/>
<polygon class="st0" points="164.6,118.9 162.9,120.4 162.9,136.2 161.1,136.2 149.7,121.2 149.7,134.6 151.6,136.1 151.6,136.2 
	146.1,136.2 146.1,136.1 147.9,134.6 147.9,120.4 146.1,118.9 146.1,118.8 151.5,118.8 161.1,131.3 161.1,120.4 159.1,118.9 
	159.1,118.8 164.6,118.8 "/>
<rect x="1.3" y="141.1" class="st0" width="163" height="1.1"/>
<g>
	<path class="st0" d="M2.7,162.8H2v-7.6h4.7v0.6h-4V162.8z"/>
	<path class="st0" d="M11.1,155.2l3,7.6h-0.8l-0.9-2.4H8.9L8,162.8H7.2l3.1-7.6H11.1z M12.2,159.8l-1.5-4l-1.5,4H12.2z"/>
	<path class="st0" d="M21.7,159.9c-0.1,0.9-0.4,1.7-1,2.2c-0.6,0.6-1.3,0.8-2.3,0.8c-1.1,0-1.9-0.4-2.5-1.1
		c-0.6-0.7-0.9-1.7-0.9-2.9c0-1.1,0.3-2.1,0.9-2.8c0.6-0.8,1.5-1.2,2.6-1.2c0.8,0,1.5,0.2,2.1,0.7c0.6,0.5,1,1,1,1.8h-0.7
		c-0.1-0.6-0.4-1-0.8-1.3c-0.4-0.3-1-0.5-1.6-0.5c-0.8,0-1.5,0.3-2,0.9c-0.5,0.6-0.8,1.4-0.8,2.4s0.3,1.8,0.8,2.4
		c0.5,0.6,1.2,0.9,2,0.9c0.7,0,1.3-0.2,1.7-0.7c0.4-0.5,0.7-1,0.8-1.8H21.7z"/>
	<path class="st0" d="M28.6,155.2v0.6h-2.7v7h-0.7v-7h-2.7v-0.6H28.6z"/>
	<path class="st0" d="M29.9,155.2h3.2c0.7,0,1.3,0.2,1.7,0.5s0.6,0.9,0.6,1.6c0,0.7-0.2,1.3-0.6,1.7c-0.4,0.4-1,0.6-1.8,0.6h-2.5
		v3.2h-0.7V155.2z M30.6,155.8v3.1h2.3c0.6,0,1-0.1,1.4-0.4c0.3-0.3,0.5-0.6,0.5-1.2c0-0.5-0.2-0.9-0.5-1.2
		c-0.3-0.3-0.8-0.4-1.3-0.4H30.6z"/>
	<path class="st0" d="M40.2,155c1.1,0,1.9,0.4,2.6,1.1c0.7,0.7,1,1.7,1,2.9c0,1.2-0.3,2.1-1,2.9s-1.5,1.1-2.6,1.1
		c-1.1,0-1.9-0.4-2.6-1.1c-0.7-0.7-1-1.7-1-2.9s0.3-2.1,1-2.9C38.3,155.4,39.2,155,40.2,155z M40.2,155.7c-0.8,0-1.5,0.3-2.1,0.9
		s-0.8,1.4-0.8,2.4c0,1,0.3,1.8,0.8,2.4c0.5,0.6,1.2,0.9,2.1,0.9s1.6-0.3,2.1-0.9c0.5-0.6,0.8-1.4,0.8-2.4s-0.3-1.8-0.8-2.4
		C41.8,156,41.1,155.7,40.2,155.7z"/>
	<path class="st0" d="M51.5,155.2v7.6h-0.7v-3.7h-4.5v3.7h-0.7v-7.6h0.7v3.3h4.5v-3.3H51.5z"/>
	<path class="st0" d="M56.7,155c1.1,0,1.9,0.4,2.6,1.1c0.7,0.7,1,1.7,1,2.9c0,1.2-0.3,2.1-1,2.9s-1.5,1.1-2.6,1.1
		c-1.1,0-1.9-0.4-2.6-1.1c-0.7-0.7-1-1.7-1-2.9s0.3-2.1,1-2.9C54.8,155.4,55.6,155,56.7,155z M56.7,155.7c-0.8,0-1.5,0.3-2.1,0.9
		s-0.8,1.4-0.8,2.4c0,1,0.3,1.8,0.8,2.4c0.5,0.6,1.2,0.9,2.1,0.9s1.6-0.3,2.1-0.9c0.5-0.6,0.8-1.4,0.8-2.4s-0.3-1.8-0.8-2.4
		C58.2,156,57.6,155.7,56.7,155.7z"/>
	<path class="st0" d="M69.3,155.2v7.6h-0.7v-4.6c0-0.7,0-1.5,0.1-2.4c-0.1,0.5-0.3,0.9-0.5,1.4l-2.2,5.6h-0.6l-2.3-5.5
		c-0.2-0.4-0.3-0.8-0.5-1.4c0.1,0.8,0.1,1.6,0.1,2.3v4.6h-0.7v-7.6h1l2.2,5.4c0.1,0.2,0.2,0.7,0.5,1.4c0-0.1,0.1-0.3,0.2-0.6
		c0.1-0.3,0.2-0.6,0.3-0.8l2.2-5.4H69.3z"/>
	<path class="st0" d="M71.4,162.8v-7.6h0.7v6.8l4.3-6.8h0.9v7.6h-0.7V156l-4.3,6.8H71.4z"/>
	<path class="st0" d="M84,159.2c-0.3,0.1-0.6,0.1-1.1,0.2c-0.5,0.1-0.9,0.1-1.2,0.1c-0.4,0-0.8,0-1.1-0.1c-0.3-0.1-0.5-0.2-0.7-0.3
		c-0.2-0.1-0.3-0.3-0.4-0.5c-0.1-0.2-0.2-0.4-0.2-0.6s0-0.4,0-0.6v-2.1h0.7v2.1c0,0.1,0,0.3,0,0.4s0.1,0.3,0.1,0.4
		c0.1,0.2,0.2,0.3,0.3,0.4c0.1,0.1,0.3,0.2,0.5,0.3c0.2,0.1,0.5,0.1,0.8,0.1c0.8,0,1.6-0.1,2.4-0.3v-3.3h0.7v7.6H84V159.2z"/>
	<path class="st0" d="M92,155.2v0.6h-4.5v2.7h4.3v0.6h-4.3v3h4.6v0.6h-5.3v-7.6H92z"/>
	<path class="st0" d="M100,159.9c-0.1,0.9-0.4,1.7-1,2.2c-0.6,0.6-1.3,0.8-2.3,0.8c-1.1,0-1.9-0.4-2.5-1.1c-0.6-0.7-0.9-1.7-0.9-2.9
		c0-1.1,0.3-2.1,0.9-2.8c0.6-0.8,1.5-1.2,2.6-1.2c0.8,0,1.5,0.2,2.1,0.7c0.6,0.5,1,1,1,1.8h-0.7c-0.1-0.6-0.4-1-0.8-1.3
		c-0.4-0.3-1-0.5-1.6-0.5c-0.8,0-1.5,0.3-2,0.9c-0.5,0.6-0.8,1.4-0.8,2.4s0.3,1.8,0.8,2.4c0.5,0.6,1.2,0.9,2,0.9
		c0.7,0,1.3-0.2,1.7-0.7c0.4-0.5,0.7-1,0.8-1.8H100z"/>
	<path class="st0" d="M107.7,155.2l-3.4,3.1l3.6,4.5H107l-3.2-4l-1.4,1.3v2.7h-0.7v-7.6h0.7v4.1l4.4-4.1H107.7z"/>
	<path class="st0" d="M109.1,162.8v-7.6h0.7v6.8l4.3-6.8h0.9v7.6h-0.7V156l-4.3,6.8H109.1z"/>
	<path class="st0" d="M117.1,162.8v-7.6h0.7v6.8l4.3-6.8h0.9v7.6h-0.7V156l-4.3,6.8H117.1z M118.6,153.4h0.4c0,0.3,0.1,0.5,0.3,0.6
		s0.4,0.2,0.8,0.2c0.3,0,0.6-0.1,0.8-0.2s0.3-0.4,0.4-0.6h0.4c-0.2,0.9-0.7,1.4-1.6,1.4c-0.4,0-0.8-0.1-1-0.4
		C118.8,154.1,118.6,153.8,118.6,153.4z"/>
	<path class="st0" d="M133.9,159c0.4,0.4,0.6,0.9,0.6,1.6s-0.2,1.2-0.6,1.6s-1,0.6-1.7,0.6h-3.6v-7.6h5.3v0.6h-4.5v2.6h2.9
		C132.9,158.4,133.5,158.6,133.9,159z M133.3,161.8c0.3-0.3,0.4-0.7,0.4-1.2c0-0.5-0.1-0.9-0.4-1.2c-0.3-0.3-0.7-0.4-1.2-0.4h-2.7
		v3.2h2.7C132.6,162.2,133,162,133.3,161.8z"/>
	<path class="st0" d="M135.4,155.2h0.8l2.5,5.1l2.5-5.1h0.8l-3,6.3c-0.3,0.6-0.6,1-0.9,1.2c-0.3,0.2-0.6,0.3-1,0.3
		c-0.2,0-0.5-0.1-0.8-0.2v-0.6c0.2,0.1,0.5,0.2,0.9,0.2c0.4,0,0.8-0.3,1.1-1l0.1-0.2L135.4,155.2z"/>
	<path class="st0" d="M148.3,155.2v0.6h-2.7v7h-0.7v-7h-2.7v-0.6H148.3z"/>
	<path class="st0" d="M149.6,162.8v-7.6h0.7v6.8l4.3-6.8h0.9v7.6h-0.7V156l-4.3,6.8H149.6z"/>
	<path class="st0" d="M163.7,155.2l-3.4,3.1l3.6,4.5h-0.9l-3.2-4l-1.4,1.3v2.7h-0.7v-7.6h0.7v4.1l4.4-4.1H163.7z"/>
</g>
<g>
	<path class="st0" d="M64.9,42.2h33.4l2.1-6.2H62.8L64.9,42.2z M83.6,14.6v17.2h5.3c4.4-3.8,7.5-12.5,6.4-17.9
		C93.9,6.6,83.6,7,83.6,14.6 M94.5,31.8h7.6c3.1-4,4.5-8,4.5-11.4c0-5.9-4-9.2-7.8-9.2C101.2,17.4,98.4,26.4,94.5,31.8 M68.6,31.8
		c-3.9-5.4-6.7-14.4-4.3-20.7c-3.8,0-7.8,3.4-7.8,9.2c0,3.4,1.4,7.5,4.5,11.4H68.6z M74.2,31.8h5.3V14.6c0-7.6-10.2-7.9-11.7-0.7
		C66.7,19.3,69.8,28,74.2,31.8 M81.6,8.9c2.3,0,4.2-1.9,4.2-4.2c0-2.3-1.9-4.2-4.2-4.2c-2.3,0-4.2,1.9-4.2,4.2
		C77.4,7,79.2,8.9,81.6,8.9"/>
	<polygon class="st0" points="29.4,84.7 29.4,79.7 32.7,79.7 32.7,61.3 29.4,61.3 29.4,56.3 42.8,56.3 48.6,62.1 54.5,56.3 
		67.8,56.3 67.8,61.3 64.5,61.3 64.5,79.7 67.8,79.7 67.8,84.7 59.5,84.7 59.5,61.3 56.1,61.3 51.1,66.3 51.1,79.7 54.5,79.7 
		54.5,84.7 42.8,84.7 42.8,79.7 46.1,79.7 46.1,66.3 41.1,61.3 37.7,61.3 37.7,84.7 	"/>
	<polygon class="st0" points="69.8,84.7 69.8,79.7 73.2,79.7 73.2,61.3 69.8,61.3 69.8,56.3 83.2,56.3 89.1,62.1 94.9,56.3 
		108.3,56.3 108.3,61.3 105,61.3 105,79.7 108.3,79.7 108.3,84.7 99.9,84.7 99.9,61.3 96.6,61.3 91.6,66.3 91.6,79.7 94.9,79.7 
		94.9,84.7 83.2,84.7 83.2,79.7 86.6,79.7 86.6,66.3 81.5,61.3 78.2,61.3 78.2,84.7 	"/>
	<path class="st0" d="M110.3,84.7v-5h3.3V61.3h-3.3v-5h20.1l3.3,3.3v21.7l-3.3,3.3L110.3,84.7L110.3,84.7z M127,79.7l1.7-1.7V63
		l-1.7-1.7h-8.4v18.4L127,79.7L127,79.7z"/>
	<rect x="29.4" y="46" class="st0" width="104.4" height="4.1"/>
	<rect x="29.4" y="51.6" class="st0" width="104.4" height="2.1"/>
	<rect x="29.4" y="90.9" class="st0" width="104.4" height="4.1"/>
	<rect x="29.4" y="87.2" class="st0" width="104.4" height="2.1"/>
</g>
</svg>
