<?xml version="1.0" encoding="utf-8"?>
<!-- Generator: Adobe Illustrator 22.0.0, SVG Export Plug-In . SVG Version: 6.00 Build 0)  -->
<svg version="1.1" id="Layer_1" xmlns="http://www.w3.org/2000/svg" xmlns:xlink="http://www.w3.org/1999/xlink" x="0px" y="0px"
	 viewBox="0 0 299.3 271.4" style="enable-background:new 0 0 299.3 271.4;" xml:space="preserve">
<path d="M101.7,119.6h96l6-18H95.7L101.7,119.6z M155.6,40v49.6h15.2c12.6-11.1,21.5-35.9,18.4-51.6C185.1,17,155.6,18,155.6,40
	 M186.8,89.6h21.9c8.9-11.5,12.9-23,12.9-33c0-16.9-11.4-26.6-22.3-26.6C206.1,48.1,198,74.1,186.8,89.6 M112.5,89.6
	C101.2,74.1,93.2,48.1,100,30.1c-10.9,0-22.3,9.7-22.3,26.6c0,9.9,4,21.5,12.9,33H112.5z M128.5,89.6h15.2V40
	c0-21.9-29.4-22.9-33.6-1.9C107,53.7,115.9,78.6,128.5,89.6 M149.6,23.6c6.6,0,12-5.4,12-12c0-6.6-5.4-12-12-12c-6.6,0-12,5.4-12,12
	C137.7,18.3,143,23.6,149.6,23.6"/>
<polygon points="-0.3,242 -0.3,227.6 9.3,227.6 9.3,174.6 -0.3,174.6 -0.3,160.2 38.1,160.2 54.9,177.1 71.8,160.2 110.2,160.2 
	110.2,174.6 100.6,174.6 100.6,227.6 110.2,227.6 110.2,242 86.2,242 86.2,174.6 76.6,174.6 62.2,189.1 62.2,227.6 71.8,227.6 
	71.8,242 38.1,242 38.1,227.6 47.7,227.6 47.7,189.1 33.3,174.6 23.7,174.6 23.7,242 "/>
<polygon points="116,242 116,227.6 125.6,227.6 125.6,174.6 116,174.6 116,160.2 154.4,160.2 171.3,177.1 188.1,160.2 226.5,160.2 
	226.5,174.6 216.9,174.6 216.9,227.6 226.5,227.6 226.5,242 202.5,242 202.5,174.6 192.9,174.6 178.5,189.1 178.5,227.6 
	188.1,227.6 188.1,242 154.4,242 154.4,227.6 164.1,227.6 164.1,189.1 149.6,174.6 140,174.6 140,242 "/>
<path d="M232.3,242v-14.4h9.6v-53h-9.6v-14.4H290l9.6,9.6v62.6L290,242L232.3,242L232.3,242z M280.4,227.6l4.8-4.8v-43.3l-4.8-4.8
	h-24v53L280.4,227.6L280.4,227.6z"/>
<rect x="-0.4" y="130.6" width="300" height="11.7"/>
<rect x="-0.4" y="146.7" width="300" height="6.2"/>
<rect x="-0.4" y="260" width="300" height="11.7"/>
<rect x="-0.4" y="249.3" width="300" height="6.2"/>
</svg>
