<?xml version="1.0" encoding="utf-8"?>
<!-- Generator: Adobe Illustrator 22.0.0, SVG Export Plug-In . SVG Version: 6.00 Build 0)  -->
<svg version="1.1" id="Layer_1" xmlns="http://www.w3.org/2000/svg" xmlns:xlink="http://www.w3.org/1999/xlink" x="0px" y="0px"
	 viewBox="0 0 164.4 141.7" style="enable-background:new 0 0 164.4 141.7;" xml:space="preserve">
<style type="text/css">
	.st0{fill:#FFFFFF;}
	.st1{fill:#EB2234;}
</style>
<polygon class="st1" points="21.9,118.5 20.1,120 20.1,134.1 21.9,135.6 21.9,135.7 15.5,135.7 15.5,135.6 17.2,134.1 17.2,122.1 
	11.4,135.1 10,135.1 4,122.2 4,134.1 5.7,135.6 5.7,135.7 0.5,135.7 0.5,135.6 2.2,134.1 2.2,120 0.5,118.5 0.5,118.4 5.4,118.4 
	11.4,131.1 17.1,118.4 21.9,118.4 "/>
<path class="st1" d="M30.1,128.8h5.2l-2.7-6.3L30.1,128.8z M34.1,118.4l6.7,15.8l1.7,1.5v0.1h-6.6v-0.1l1.7-1.5l-1.5-3.7h-6.6
	l-1.5,3.7l1.7,1.5v0.1h-5.2v-0.1l1.7-1.5l6.5-15.8H34.1z"/>
<polygon class="st1" points="74.4,118.5 72.7,120 72.7,134.1 74.4,135.6 74.4,135.7 68.1,135.7 68.1,135.6 69.8,134.1 69.8,122.1 
	64,135.1 62.6,135.1 56.6,122.2 56.6,134.1 58.3,135.6 58.3,135.7 53.1,135.7 53.1,135.6 54.8,134.1 54.8,120 53.1,118.5 
	53.1,118.4 58,118.4 63.9,131.1 69.6,118.4 74.4,118.4 "/>
<path class="st1" d="M82.7,128.8h5.2l-2.7-6.3L82.7,128.8z M86.7,118.4l6.7,15.8l1.7,1.5v0.1h-6.6v-0.1l1.7-1.5l-1.5-3.7h-6.6
	l-1.5,3.7l1.7,1.5v0.1h-5.2v-0.1l1.7-1.5l6.5-15.8H86.7z"/>
<polygon class="st1" points="104,118.5 102.3,120 102.3,134.1 104,135.6 104,135.7 97.7,135.7 97.7,135.6 99.4,134.1 99.4,120 
	97.7,118.5 97.7,118.4 104,118.4 "/>
<path class="st1" d="M118.9,119.2v3.9h-0.1c-1.6-2.3-3.4-3.4-5.4-3.4c-2.1,0-3,1.2-3,2.4v0.1c0,1.6,1.2,2.2,3.9,2.9
	c4,1.1,6,2.7,6,5.7v0.1c0,1.4-0.6,2.5-1.7,3.4c-1.1,0.9-2.7,1.4-4.6,1.4c-1.6,0-3.8-0.6-6.4-1.8v-4.4h0.1c2.2,3,4.1,4.5,6.4,4.5
	c2.2,0,3.5-1.1,3.5-2.7v-0.1c0-2-1.6-2.8-4.7-3.6c-3.4-0.9-5-2.6-5-5v-0.2c0-1.3,0.5-2.4,1.6-3.3c1.1-0.9,2.5-1.4,4.1-1.4
	C115,118.1,116.8,118.5,118.9,119.2"/>
<path class="st1" d="M126.5,127.3c0,2.1,0.6,3.8,1.7,5.1c1.2,1.3,2.6,2,4.5,2c1.8,0,3.3-0.7,4.5-2c1.1-1.3,1.7-3,1.7-5.1v-0.4
	c0-2.1-0.6-3.8-1.7-5.1c-1.2-1.3-2.6-2-4.5-2c-1.8,0-3.3,0.7-4.5,2c-1.1,1.3-1.7,3-1.7,5.1V127.3z M139.3,120.6
	c1.8,1.6,2.8,3.7,2.8,6.3v0.3c0,2.6-0.9,4.7-2.8,6.3c-1.8,1.6-4.1,2.4-6.6,2.4c-2.6,0-4.8-0.8-6.6-2.4c-1.8-1.6-2.7-3.7-2.7-6.3
	v-0.3c0-2.6,0.9-4.7,2.7-6.3c1.8-1.6,4-2.4,6.6-2.4C135.3,118.1,137.5,118.9,139.3,120.6"/>
<polygon class="st1" points="164,118.5 162.3,120 162.3,135.7 160.6,135.7 149.1,120.8 149.1,134.1 151.1,135.6 151.1,135.7 
	145.6,135.7 145.6,135.6 147.3,134.1 147.3,120 145.6,118.5 145.6,118.4 151,118.4 160.6,130.9 160.6,120 158.6,118.5 158.6,118.4 
	164,118.4 "/>
<rect x="0.8" y="140.6" class="st1" width="163" height="1.1"/>
<g>
	<path class="st1" d="M64.3,41.8h33.4l2.1-6.2H62.3L64.3,41.8z M83.1,14.1v17.2h5.3c4.4-3.8,7.5-12.5,6.4-17.9
		C93.4,6.2,83.1,6.5,83.1,14.1 M94,31.4h7.6c3.1-4,4.5-8,4.5-11.4c0-5.9-4-9.2-7.8-9.2C100.7,16.9,97.9,26,94,31.4 M68.1,31.4
		c-3.9-5.4-6.7-14.4-4.3-20.7c-3.8,0-7.8,3.4-7.8,9.2c0,3.4,1.4,7.5,4.5,11.4H68.1z M73.7,31.4H79V14.1c0-7.6-10.2-7.9-11.7-0.7
		C66.2,18.9,69.3,27.5,73.7,31.4 M81,8.5c2.3,0,4.2-1.9,4.2-4.2c0-2.3-1.9-4.2-4.2-4.2c-2.3,0-4.2,1.9-4.2,4.2
		C76.9,6.6,78.7,8.5,81,8.5"/>
	<polygon class="st1" points="28.9,84.2 28.9,79.2 32.2,79.2 32.2,60.9 28.9,60.9 28.9,55.8 42.2,55.8 48.1,61.7 53.9,55.8 
		67.3,55.8 67.3,60.9 64,60.9 64,79.2 67.3,79.2 67.3,84.2 59,84.2 59,60.9 55.6,60.9 50.6,65.9 50.6,79.2 53.9,79.2 53.9,84.2 
		42.2,84.2 42.2,79.2 45.6,79.2 45.6,65.9 40.6,60.9 37.2,60.9 37.2,84.2 	"/>
	<polygon class="st1" points="69.3,84.2 69.3,79.2 72.7,79.2 72.7,60.9 69.3,60.9 69.3,55.8 82.7,55.8 88.6,61.7 94.4,55.8 
		107.8,55.8 107.8,60.9 104.4,60.9 104.4,79.2 107.8,79.2 107.8,84.2 99.4,84.2 99.4,60.9 96.1,60.9 91.1,65.9 91.1,79.2 94.4,79.2 
		94.4,84.2 82.7,84.2 82.7,79.2 86.1,79.2 86.1,65.9 81,60.9 77.7,60.9 77.7,84.2 	"/>
	<path class="st1" d="M109.8,84.2v-5h3.3V60.9h-3.3v-5h20.1l3.3,3.3v21.7l-3.3,3.3L109.8,84.2L109.8,84.2z M126.5,79.2l1.7-1.7v-15
		l-1.7-1.7h-8.4v18.4L126.5,79.2L126.5,79.2z"/>
	<rect x="28.8" y="45.6" class="st1" width="104.4" height="4.1"/>
	<rect x="28.8" y="51.2" class="st1" width="104.4" height="2.1"/>
	<rect x="28.8" y="90.5" class="st1" width="104.4" height="4.1"/>
	<rect x="28.8" y="86.8" class="st1" width="104.4" height="2.1"/>
</g>
</svg>
